<?xml version="1.0" encoding="UTF-8" standalone="no"?>
<!-- Created with Inkscape (http://www.inkscape.org/) -->

<svg
   xmlns:dc="http://purl.org/dc/elements/1.1/"
   xmlns:cc="http://creativecommons.org/ns#"
   xmlns:rdf="http://www.w3.org/1999/02/22-rdf-syntax-ns#"
   xmlns:svg="http://www.w3.org/2000/svg"
   xmlns="http://www.w3.org/2000/svg"
   xmlns:sodipodi="http://sodipodi.sourceforge.net/DTD/sodipodi-0.dtd"
   xmlns:inkscape="http://www.inkscape.org/namespaces/inkscape"
   width="210mm"
   height="297mm"
   viewBox="0 0 744.09448819 1052.3622047"
   id="svg2"
   version="1.1"
   inkscape:version="0.91 r13725"
   sodipodi:docname="goal_1.svg">
  <defs
     id="defs4" />
  <sodipodi:namedview
     id="base"
     pagecolor="#ffffff"
     bordercolor="#666666"
     borderopacity="1.0"
     inkscape:pageopacity="0.0"
     inkscape:pageshadow="2"
     inkscape:zoom="1.4"
     inkscape:cx="310.08737"
     inkscape:cy="534.43474"
     inkscape:document-units="px"
     inkscape:current-layer="layer1"
     showgrid="false"
     inkscape:window-width="1600"
     inkscape:window-height="838"
     inkscape:window-x="-8"
     inkscape:window-y="58"
     inkscape:window-maximized="1" />
  <metadata
     id="metadata7">
    <rdf:RDF>
      <cc:Work
         rdf:about="">
        <dc:format>image/svg+xml</dc:format>
        <dc:type
           rdf:resource="http://purl.org/dc/dcmitype/StillImage" />
        <dc:title />
      </cc:Work>
    </rdf:RDF>
  </metadata>
  <g
     inkscape:label="Ebene 1"
     inkscape:groupmode="layer"
     id="layer1">
    <path
       style="opacity:1;fill:#0066ff;fill-opacity:1;stroke:#000000;stroke-opacity:0"
       id="path4303"
       sodipodi:type="arc"
       sodipodi:cx="427.5"
       sodipodi:cy="416.29077"
       sodipodi:rx="33.92857"
       sodipodi:ry="31.785715"
       sodipodi:start="0"
       sodipodi:end="6.2794154"
       sodipodi:open="true"
       d="m 461.42857,416.29077 a 33.92857,31.785715 0 0 1 -33.89659,31.7857 33.92857,31.785715 0 0 1 -33.96049,-31.72578 33.92857,31.785715 0 0 1 33.83258,-31.84551 33.92857,31.785715 0 0 1 34.02426,31.66576" />
    <path
       style="opacity:1;fill:#a7ac93;fill-opacity:1;stroke:#000000;stroke-opacity:0"
       id="path4136"
       sodipodi:type="arc"
       sodipodi:cx="397.85715"
       sodipodi:cy="538.07648"
       sodipodi:rx="174.28572"
       sodipodi:ry="174.28572"
       sodipodi:start="0"
       sodipodi:end="6.2794154"
       sodipodi:open="true"
       d="M 572.14287,538.07648 A 174.28572,174.28572 0 0 1 398.02141,712.36212 174.28572,174.28572 0 0 1 223.57174,538.405 174.28572,174.28572 0 0 1 397.36437,363.79145 174.28572,174.28572 0 0 1 572.14163,537.41944" />
    <path
       style="opacity:1;fill:#c87137;fill-opacity:1;stroke:#000000;stroke-opacity:0"
       d="m 526.42857,513.43365 c 10e-6,18.72575 -62.9242,75.0256 -82.06545,33.92856 -16.97514,-36.44631 -72.55202,-27.45945 -82.22013,-33.8646 -15.61083,-10.34222 14.58051,-38.63297 83.69617,-36.49239 45.31415,1.40342 80.41791,17.57492 80.58882,36.30053"
       id="path4138"
       inkscape:connector-curvature="0"
       sodipodi:nodetypes="csssc" />
    <path
       sodipodi:nodetypes="csssc"
       inkscape:connector-curvature="0"
       id="path4141"
       d="m 523.05677,512.70638 c 10e-6,17.84748 -59.97294,71.50676 -78.21643,32.33725 -16.17897,-34.73691 -69.14919,-26.17155 -78.36385,-32.27629 -14.87865,-9.85715 13.89666,-36.82101 79.77066,-34.78083 43.18884,1.3376 76.64617,16.75063 76.80906,34.59797"
       style="opacity:1;fill:#8a916f;fill-opacity:1;stroke:#000000;stroke-width:0.95309818;stroke-opacity:0" />
    <g
       id="g4149"
       transform="translate(-31.314729,15.657364)">
      <path
         style="opacity:1;fill:#c87137;fill-opacity:1;stroke:#000000;stroke-opacity:0"
         d="m 314.90442,564.00434 c 52.01198,-19.13749 53.18628,29.61321 83.95463,21.89345 45.68164,-11.4615 72.11883,6.80274 70.40199,41.53587 -0.92448,18.70307 -53.21892,56.38427 -103.86133,46.84154 -44.55182,-8.39506 -66.74007,-60.17359 -62.144,-78.3272"
         id="path4143"
         inkscape:connector-curvature="0"
         sodipodi:nodetypes="csssc" />
      <path
         d="m 359.53838,589.20728 a 28.713432,29.723585 0 0 1 -28.68637,29.72357 28.713432,29.723585 0 0 1 -28.74044,-29.66755 28.713432,29.723585 0 0 1 28.6322,-29.77949 28.713432,29.723585 0 0 1 28.79441,29.61141"
         sodipodi:open="true"
         sodipodi:end="6.2794154"
         sodipodi:start="0"
         sodipodi:ry="29.723585"
         sodipodi:rx="28.713432"
         sodipodi:cy="589.20728"
         sodipodi:cx="330.82495"
         sodipodi:type="arc"
         id="path4145"
         style="opacity:1;fill:#c87137;fill-opacity:1;stroke:#000000;stroke-width:1.15183008;stroke-opacity:0" />
    </g>
    <g
       id="g4153"
       style="fill:#8a916f"
       transform="matrix(0.96558006,0,0,0.96558006,-17.905433,36.915243)">
      <path
         sodipodi:nodetypes="csssc"
         inkscape:connector-curvature="0"
         id="path4155"
         d="m 314.90442,564.00434 c 52.01198,-19.13749 53.18628,29.61321 83.95463,21.89345 45.68164,-11.4615 72.11883,6.80274 70.40199,41.53587 -0.92448,18.70307 -53.21892,56.38427 -103.86133,46.84154 -44.55182,-8.39506 -66.74007,-60.17359 -62.144,-78.3272"
         style="opacity:1;fill:#8a916f;fill-opacity:1;stroke:#000000;stroke-opacity:0" />
      <path
         style="opacity:1;fill:#8a916f;fill-opacity:1;stroke:#000000;stroke-width:1.15183008;stroke-opacity:0"
         id="path4157"
         sodipodi:type="arc"
         sodipodi:cx="330.82495"
         sodipodi:cy="589.20728"
         sodipodi:rx="28.713432"
         sodipodi:ry="29.723585"
         sodipodi:start="0"
         sodipodi:end="6.2794154"
         sodipodi:open="true"
         d="m 359.53838,589.20728 a 28.713432,29.723585 0 0 1 -28.68637,29.72357 28.713432,29.723585 0 0 1 -28.74044,-29.66755 28.713432,29.723585 0 0 1 28.6322,-29.77949 28.713432,29.723585 0 0 1 28.79441,29.61141" />
    </g>
    <path
       id="path4170"
       d="m 397.36523,363.79102 c -96.19085,0.27179 -173.97413,78.42222 -173.79296,174.61328 0.10797,19.08216 3.34902,38.01707 9.59375,56.04882 18.61499,-32.109 44.2473,-59.81797 47.54799,-96.7991 69.11633,-33.4402 25.4773,-68.05679 64.13755,-102.26089 -9.08652,-1.49709 61.72259,-31.55736 52.51367,-31.60211 z"
       style="opacity:1;fill:#c87137;fill-opacity:1;stroke:#000000;stroke-opacity:0"
       inkscape:connector-curvature="0"
       sodipodi:nodetypes="cccccc" />
    <path
       sodipodi:nodetypes="cccccc"
       inkscape:connector-curvature="0"
       style="opacity:1;fill:#8a916f;fill-opacity:1;stroke:#000000;stroke-width:0.97856891;stroke-opacity:0"
       d="m 393.11001,363.77985 c -93.84136,0.26678 -169.72476,76.97708 -169.54801,171.39557 0.10533,18.73052 3.26722,37.3165 9.35942,55.01597 18.16031,-31.51731 43.16654,-58.71566 46.38661,-95.01532 67.42814,-32.82398 24.85501,-66.80266 62.57097,-100.37646 -8.86458,-1.4695 60.215,-30.97583 51.23101,-31.01976 z"
       id="path4176" />
    <g
       id="g4209"
       style="fill:#8a916f">
      <path
         sodipodi:nodetypes="csssc"
         inkscape:connector-curvature="0"
         id="path4178"
         d="m 465.7143,425.21936 c -1.64018,8.27875 -4.77776,11.06761 -11.41712,10.89285 -5.89404,-0.15515 -7.28229,-3.67687 -12.86857,-10.86458 -3.02749,-3.89538 7.18765,-12.71196 12.1085,-15.02821 5.35672,-2.52142 4.76506,3.99801 8.78424,11.55053"
         style="opacity:1;fill:#8a916f;fill-opacity:1;stroke:#000000;stroke-opacity:0" />
      <path
         style="opacity:1;fill:#8a916f;fill-opacity:1;stroke:#000000;stroke-width:0.95158899;stroke-opacity:0"
         d="m 465.20233,424.97819 c -1.56077,7.87797 -4.54646,10.53182 -10.8644,10.36552 -5.60871,-0.14764 -6.92975,-3.49887 -12.24559,-10.33861 -2.88093,-3.70681 6.83969,-12.09657 11.52231,-14.30068 5.0974,-2.39936 4.53438,3.80446 8.35899,10.99135"
         id="path4181"
         inkscape:connector-curvature="0"
         sodipodi:nodetypes="csssc" />
    </g>
    <g
       id="g4213"
       transform="matrix(0.1720766,0.98508357,-0.98508357,0.1720766,660.45223,6.4495149)"
       style="fill:#8a916f">
      <path
         style="opacity:1;fill:#8a916f;fill-opacity:1;stroke:#000000;stroke-opacity:0"
         d="m 465.7143,425.21936 c -1.64018,8.27875 -4.77776,11.06761 -11.41712,10.89285 -5.89404,-0.15515 -7.28229,-3.67687 -12.86857,-10.86458 -3.02749,-3.89538 7.18765,-12.71196 12.1085,-15.02821 5.35672,-2.52142 4.76506,3.99801 8.78424,11.55053"
         id="path4215"
         inkscape:connector-curvature="0"
         sodipodi:nodetypes="csssc" />
      <path
         sodipodi:nodetypes="csssc"
         inkscape:connector-curvature="0"
         id="path4217"
         d="m 465.20233,424.97819 c -1.56077,7.87797 -4.54646,10.53182 -10.8644,10.36552 -5.60871,-0.14764 -6.92975,-3.49887 -12.24559,-10.33861 -2.88093,-3.70681 6.83969,-12.09657 11.52231,-14.30068 5.0974,-2.39936 4.53438,3.80446 8.35899,10.99135"
         style="opacity:1;fill:#8a916f;fill-opacity:1;stroke:#000000;stroke-width:0.95158899;stroke-opacity:0" />
    </g>
    <g
       id="g4225"
       transform="matrix(-0.17508633,-1.7039654,2.1181201,-0.14085181,-314.71962,1474.9452)"
       style="fill:#8a916f">
      <path
         style="opacity:1;fill:#8a916f;fill-opacity:1;stroke:#000000;stroke-opacity:0"
         d="m 465.7143,425.21936 c -1.64018,8.27875 -4.77776,11.06761 -11.41712,10.89285 -5.89404,-0.15515 -7.28229,-3.67687 -12.86857,-10.86458 -3.02749,-3.89538 7.18765,-12.71196 12.1085,-15.02821 5.35672,-2.52142 4.76506,3.99801 8.78424,11.55053"
         id="path4227"
         inkscape:connector-curvature="0"
         sodipodi:nodetypes="csssc" />
      <path
         sodipodi:nodetypes="csssc"
         inkscape:connector-curvature="0"
         id="path4229"
         d="m 465.20233,424.97819 c -1.56077,7.87797 -4.54646,10.53182 -10.8644,10.36552 -5.60871,-0.14764 -6.92975,-3.49887 -12.24559,-10.33861 -2.88093,-3.70681 6.83969,-12.09657 11.52231,-14.30068 5.0974,-2.39936 4.53438,3.80446 8.35899,10.99135"
         style="opacity:1;fill:#8a916f;fill-opacity:1;stroke:#000000;stroke-width:0.95158899;stroke-opacity:0" />
    </g>
    <g
       id="g4231"
       transform="matrix(1,-0.94055672,0,1,92.857143,587.06345)"
       style="fill:#8a916f">
      <path
         style="opacity:1;fill:#8a916f;fill-opacity:1;stroke:#000000;stroke-opacity:0"
         d="m 465.7143,425.21936 c -1.64018,8.27875 -4.77776,11.06761 -11.41712,10.89285 -5.89404,-0.15515 -7.28229,-3.67687 -12.86857,-10.86458 -3.02749,-3.89538 7.18765,-12.71196 12.1085,-15.02821 5.35672,-2.52142 4.76506,3.99801 8.78424,11.55053"
         id="path4233"
         inkscape:connector-curvature="0"
         sodipodi:nodetypes="csssc" />
      <path
         sodipodi:nodetypes="csssc"
         inkscape:connector-curvature="0"
         id="path4235"
         d="m 465.20233,424.97819 c -1.56077,7.87797 -4.54646,10.53182 -10.8644,10.36552 -5.60871,-0.14764 -6.92975,-3.49887 -12.24559,-10.33861 -2.88093,-3.70681 6.83969,-12.09657 11.52231,-14.30068 5.0974,-2.39936 4.53438,3.80446 8.35899,10.99135"
         style="opacity:1;fill:#8a916f;fill-opacity:1;stroke:#000000;stroke-width:0.95158899;stroke-opacity:0" />
    </g>
    <g
       id="g4237"
       transform="matrix(-0.940292,-0.34036884,0.34036884,-0.940292,809.86882,1016.2572)"
       style="fill:#8a916f">
      <path
         style="opacity:1;fill:#8a916f;fill-opacity:1;stroke:#000000;stroke-opacity:0"
         d="m 465.7143,425.21936 c -1.64018,8.27875 -4.77776,11.06761 -11.41712,10.89285 -5.89404,-0.15515 -7.28229,-3.67687 -12.86857,-10.86458 -3.02749,-3.89538 7.18765,-12.71196 12.1085,-15.02821 5.35672,-2.52142 4.76506,3.99801 8.78424,11.55053"
         id="path4239"
         inkscape:connector-curvature="0"
         sodipodi:nodetypes="csssc" />
      <path
         sodipodi:nodetypes="csssc"
         inkscape:connector-curvature="0"
         id="path4241"
         d="m 465.20233,424.97819 c -1.56077,7.87797 -4.54646,10.53182 -10.8644,10.36552 -5.60871,-0.14764 -6.92975,-3.49887 -12.24559,-10.33861 -2.88093,-3.70681 6.83969,-12.09657 11.52231,-14.30068 5.0974,-2.39936 4.53438,3.80446 8.35899,10.99135"
         style="opacity:1;fill:#8a916f;fill-opacity:1;stroke:#000000;stroke-width:0.95158899;stroke-opacity:0" />
    </g>
    <g
       id="g4243"
       transform="matrix(0.3368134,0,0,0.35862744,215.69785,250.53104)"
       style="fill:#8a916f">
      <path
         style="opacity:1;fill:#8a916f;fill-opacity:1;stroke:#000000;stroke-opacity:0"
         d="m 465.7143,425.21936 c -1.64018,8.27875 -4.77776,11.06761 -11.41712,10.89285 -5.89404,-0.15515 -7.28229,-3.67687 -12.86857,-10.86458 -3.02749,-3.89538 7.18765,-12.71196 12.1085,-15.02821 5.35672,-2.52142 4.76506,3.99801 8.78424,11.55053"
         id="path4245"
         inkscape:connector-curvature="0"
         sodipodi:nodetypes="csssc" />
      <path
         sodipodi:nodetypes="csssc"
         inkscape:connector-curvature="0"
         id="path4247"
         d="m 465.20233,424.97819 c -1.56077,7.87797 -4.54646,10.53182 -10.8644,10.36552 -5.60871,-0.14764 -6.92975,-3.49887 -12.24559,-10.33861 -2.88093,-3.70681 6.83969,-12.09657 11.52231,-14.30068 5.0974,-2.39936 4.53438,3.80446 8.35899,10.99135"
         style="opacity:1;fill:#8a916f;fill-opacity:1;stroke:#000000;stroke-width:0.95158899;stroke-opacity:0" />
    </g>
    <g
       id="g4249"
       transform="matrix(-0.05793572,-0.35328209,0.33179318,-0.06168798,255.5244,600.46112)"
       style="fill:#8a916f">
      <path
         style="opacity:1;fill:#8a916f;fill-opacity:1;stroke:#000000;stroke-opacity:0"
         d="m 465.7143,425.21936 c -1.64018,8.27875 -4.77776,11.06761 -11.41712,10.89285 -5.89404,-0.15515 -7.28229,-3.67687 -12.86857,-10.86458 -3.02749,-3.89538 7.18765,-12.71196 12.1085,-15.02821 5.35672,-2.52142 4.76506,3.99801 8.78424,11.55053"
         id="path4251"
         inkscape:connector-curvature="0"
         sodipodi:nodetypes="csssc" />
      <path
         sodipodi:nodetypes="csssc"
         inkscape:connector-curvature="0"
         id="path4253"
         d="m 465.20233,424.97819 c -1.56077,7.87797 -4.54646,10.53182 -10.8644,10.36552 -5.60871,-0.14764 -6.92975,-3.49887 -12.24559,-10.33861 -2.88093,-3.70681 6.83969,-12.09657 11.52231,-14.30068 5.0974,-2.39936 4.53438,3.80446 8.35899,10.99135"
         style="opacity:1;fill:#8a916f;fill-opacity:1;stroke:#000000;stroke-width:0.95158899;stroke-opacity:0" />
    </g>
    <g
       id="g4255"
       transform="matrix(0.21529961,0.27579153,-0.2590161,0.2292437,390.90176,174.59653)"
       style="fill:#8a916f">
      <path
         style="opacity:1;fill:#8a916f;fill-opacity:1;stroke:#000000;stroke-opacity:0"
         d="m 465.7143,425.21936 c -1.64018,8.27875 -4.77776,11.06761 -11.41712,10.89285 -5.89404,-0.15515 -7.28229,-3.67687 -12.86857,-10.86458 -3.02749,-3.89538 7.18765,-12.71196 12.1085,-15.02821 5.35672,-2.52142 4.76506,3.99801 8.78424,11.55053"
         id="path4257"
         inkscape:connector-curvature="0"
         sodipodi:nodetypes="csssc" />
      <path
         sodipodi:nodetypes="csssc"
         inkscape:connector-curvature="0"
         id="path4259"
         d="m 465.20233,424.97819 c -1.56077,7.87797 -4.54646,10.53182 -10.8644,10.36552 -5.60871,-0.14764 -6.92975,-3.49887 -12.24559,-10.33861 -2.88093,-3.70681 6.83969,-12.09657 11.52231,-14.30068 5.0974,-2.39936 4.53438,3.80446 8.35899,10.99135"
         style="opacity:1;fill:#8a916f;fill-opacity:1;stroke:#000000;stroke-width:0.95158899;stroke-opacity:0" />
    </g>
    <g
       id="g4261"
       transform="matrix(-0.20071887,-0.28798956,0.27047217,-0.21371863,336.3158,636.69449)"
       style="fill:#8a916f">
      <path
         style="opacity:1;fill:#8a916f;fill-opacity:1;stroke:#000000;stroke-opacity:0"
         d="m 465.7143,425.21936 c -1.64018,8.27875 -4.77776,11.06761 -11.41712,10.89285 -5.89404,-0.15515 -7.28229,-3.67687 -12.86857,-10.86458 -3.02749,-3.89538 7.18765,-12.71196 12.1085,-15.02821 5.35672,-2.52142 4.76506,3.99801 8.78424,11.55053"
         id="path4263"
         inkscape:connector-curvature="0"
         sodipodi:nodetypes="csssc" />
      <path
         sodipodi:nodetypes="csssc"
         inkscape:connector-curvature="0"
         id="path4265"
         d="m 465.20233,424.97819 c -1.56077,7.87797 -4.54646,10.53182 -10.8644,10.36552 -5.60871,-0.14764 -6.92975,-3.49887 -12.24559,-10.33861 -2.88093,-3.70681 6.83969,-12.09657 11.52231,-14.30068 5.0974,-2.39936 4.53438,3.80446 8.35899,10.99135"
         style="opacity:1;fill:#8a916f;fill-opacity:1;stroke:#000000;stroke-width:0.95158899;stroke-opacity:0" />
    </g>
    <g
       id="g4267"
       transform="matrix(0.04501062,0.35541069,-0.33379231,0.04792577,499.71536,226.96766)"
       style="fill:#8a916f">
      <path
         style="opacity:1;fill:#8a916f;fill-opacity:1;stroke:#000000;stroke-opacity:0"
         d="m 465.7143,425.21936 c -1.64018,8.27875 -4.77776,11.06761 -11.41712,10.89285 -5.89404,-0.15515 -7.28229,-3.67687 -12.86857,-10.86458 -3.02749,-3.89538 7.18765,-12.71196 12.1085,-15.02821 5.35672,-2.52142 4.76506,3.99801 8.78424,11.55053"
         id="path4269"
         inkscape:connector-curvature="0"
         sodipodi:nodetypes="csssc" />
      <path
         sodipodi:nodetypes="csssc"
         inkscape:connector-curvature="0"
         id="path4271"
         d="m 465.20233,424.97819 c -1.56077,7.87797 -4.54646,10.53182 -10.8644,10.36552 -5.60871,-0.14764 -6.92975,-3.49887 -12.24559,-10.33861 -2.88093,-3.70681 6.83969,-12.09657 11.52231,-14.30068 5.0974,-2.39936 4.53438,3.80446 8.35899,10.99135"
         style="opacity:1;fill:#8a916f;fill-opacity:1;stroke:#000000;stroke-width:0.95158899;stroke-opacity:0" />
    </g>
    <g
       transform="matrix(-0.20760107,-0.32789312,0.31073441,-0.19673726,334.4274,673.10385)"
       id="g4273"
       inkscape:transform-center-x="5.0656353"
       inkscape:transform-center-y="-3.04326"
       style="fill:#8a916f">
      <path
         sodipodi:nodetypes="csssc"
         inkscape:connector-curvature="0"
         id="path4275"
         d="m 465.7143,425.21936 c -1.64018,8.27875 -4.77776,11.06761 -11.41712,10.89285 -5.89404,-0.15515 -7.28229,-3.67687 -12.86857,-10.86458 -3.02749,-3.89538 7.18765,-12.71196 12.1085,-15.02821 5.35672,-2.52142 4.76506,3.99801 8.78424,11.55053"
         style="opacity:1;fill:#8a916f;fill-opacity:1;stroke:#000000;stroke-opacity:0" />
      <path
         style="opacity:1;fill:#8a916f;fill-opacity:1;stroke:#000000;stroke-width:0.95158899;stroke-opacity:0"
         d="m 465.20233,424.97819 c -1.56077,7.87797 -4.54646,10.53182 -10.8644,10.36552 -5.60871,-0.14764 -6.92975,-3.49887 -12.24559,-10.33861 -2.88093,-3.70681 6.83969,-12.09657 11.52231,-14.30068 5.0974,-2.39936 4.53438,3.80446 8.35899,10.99135"
         id="path4277"
         inkscape:connector-curvature="0"
         sodipodi:nodetypes="csssc" />
    </g>
    <g
       transform="matrix(-0.27039316,0.25020622,-0.25795661,-0.28916482,613.07811,442.36606)"
       id="g4279"
       inkscape:transform-center-x="-4.1093857"
       inkscape:transform-center-y="-10.27669"
       style="fill:#8a916f">
      <path
         sodipodi:nodetypes="csssc"
         inkscape:connector-curvature="0"
         id="path4281"
         d="m 465.7143,425.21936 c -1.64018,8.27875 -4.77776,11.06761 -11.41712,10.89285 -5.89404,-0.15515 -7.28229,-3.67687 -12.86857,-10.86458 -3.02749,-3.89538 7.18765,-12.71196 12.1085,-15.02821 5.35672,-2.52142 4.76506,3.99801 8.78424,11.55053"
         style="opacity:1;fill:#8a916f;fill-opacity:1;stroke:#000000;stroke-opacity:0" />
      <path
         style="opacity:1;fill:#8a916f;fill-opacity:1;stroke:#000000;stroke-width:0.95158899;stroke-opacity:0"
         d="m 465.20233,424.97819 c -1.56077,7.87797 -4.54646,10.53182 -10.8644,10.36552 -5.60871,-0.14764 -6.92975,-3.49887 -12.24559,-10.33861 -2.88093,-3.70681 6.83969,-12.09657 11.52231,-14.30068 5.0974,-2.39936 4.53438,3.80446 8.35899,10.99135"
         id="path4283"
         inkscape:connector-curvature="0"
         sodipodi:nodetypes="csssc" />
    </g>
    <g
       transform="matrix(0.10625701,-0.36089236,0.35827855,0.12639681,160.64347,544.19656)"
       id="g4285"
       inkscape:transform-center-x="16.050849"
       inkscape:transform-center-y="-9.5929466"
       style="fill:#8a916f">
      <path
         sodipodi:nodetypes="csssc"
         inkscape:connector-curvature="0"
         id="path4287"
         d="m 465.7143,425.21936 c -1.64018,8.27875 -4.77776,11.06761 -11.41712,10.89285 -5.89404,-0.15515 -7.28229,-3.67687 -12.86857,-10.86458 -3.02749,-3.89538 7.18765,-12.71196 12.1085,-15.02821 5.35672,-2.52142 4.76506,3.99801 8.78424,11.55053"
         style="opacity:1;fill:#8a916f;fill-opacity:1;stroke:#000000;stroke-opacity:0" />
      <path
         style="opacity:1;fill:#8a916f;fill-opacity:1;stroke:#000000;stroke-width:0.95158899;stroke-opacity:0"
         d="m 465.20233,424.97819 c -1.56077,7.87797 -4.54646,10.53182 -10.8644,10.36552 -5.60871,-0.14764 -6.92975,-3.49887 -12.24559,-10.33861 -2.88093,-3.70681 6.83969,-12.09657 11.52231,-14.30068 5.0974,-2.39936 4.53438,3.80446 8.35899,10.99135"
         id="path4289"
         inkscape:connector-curvature="0"
         sodipodi:nodetypes="csssc" />
    </g>
    <g
       transform="matrix(-0.12581315,0.35338942,-0.35188794,-0.14606628,594.67543,343.83731)"
       id="g4291"
       inkscape:transform-center-x="-11.802189"
       inkscape:transform-center-y="-1.8784237"
       style="fill:#8a916f">
      <path
         sodipodi:nodetypes="csssc"
         inkscape:connector-curvature="0"
         id="path4293"
         d="m 465.7143,425.21936 c -1.64018,8.27875 -4.77776,11.06761 -11.41712,10.89285 -5.89404,-0.15515 -7.28229,-3.67687 -12.86857,-10.86458 -3.02749,-3.89538 7.18765,-12.71196 12.1085,-15.02821 5.35672,-2.52142 4.76506,3.99801 8.78424,11.55053"
         style="opacity:1;fill:#8a916f;fill-opacity:1;stroke:#000000;stroke-opacity:0" />
      <path
         style="opacity:1;fill:#8a916f;fill-opacity:1;stroke:#000000;stroke-width:0.95158899;stroke-opacity:0"
         d="m 465.20233,424.97819 c -1.56077,7.87797 -4.54646,10.53182 -10.8644,10.36552 -5.60871,-0.14764 -6.92975,-3.49887 -12.24559,-10.33861 -2.88093,-3.70681 6.83969,-12.09657 11.52231,-14.30068 5.0974,-2.39936 4.53438,3.80446 8.35899,10.99135"
         id="path4295"
         inkscape:connector-curvature="0"
         sodipodi:nodetypes="csssc" />
    </g>
    <g
       transform="matrix(0.28020412,-0.23879115,0.24726447,0.29866073,138.95143,409.53485)"
       id="g4297"
       inkscape:transform-center-x="5.519401"
       inkscape:transform-center-y="-16.390187"
       style="fill:#8a916f">
      <path
         sodipodi:nodetypes="csssc"
         inkscape:connector-curvature="0"
         id="path4299"
         d="m 465.7143,425.21936 c -1.64018,8.27875 -4.77776,11.06761 -11.41712,10.89285 -5.89404,-0.15515 -7.28229,-3.67687 -12.86857,-10.86458 -3.02749,-3.89538 7.18765,-12.71196 12.1085,-15.02821 5.35672,-2.52142 4.76506,3.99801 8.78424,11.55053"
         style="opacity:1;fill:#8a916f;fill-opacity:1;stroke:#000000;stroke-opacity:0" />
      <path
         style="opacity:1;fill:#8a916f;fill-opacity:1;stroke:#000000;stroke-width:0.95158899;stroke-opacity:0"
         d="m 465.20233,424.97819 c -1.56077,7.87797 -4.54646,10.53182 -10.8644,10.36552 -5.60871,-0.14764 -6.92975,-3.49887 -12.24559,-10.33861 -2.88093,-3.70681 6.83969,-12.09657 11.52231,-14.30068 5.0974,-2.39936 4.53438,3.80446 8.35899,10.99135"
         id="path4301"
         inkscape:connector-curvature="0"
         sodipodi:nodetypes="csssc" />
    </g>
    <path
       style="opacity:1;fill:#5599ff;fill-opacity:1;stroke:#000000;stroke-width:0.71428573;stroke-opacity:0"
       d="m 383.87309,711.62978 c -8.39137,-0.87603 -19.46782,-2.69131 -26.42857,-4.33128 -47.99247,-11.30715 -90.42082,-44.24531 -113.46458,-88.08532 -3.81748,-7.26263 -10.464,-22.67672 -10.464,-24.26728 0,-0.91241 6.96592,-12.11945 19.10244,-30.73272 17.16492,-26.32514 24.31035,-41.84669 27.23263,-59.15562 l 1.24427,-7.3699 5.77188,-3.08398 c 16.33415,-8.72753 27.09804,-18.69446 32.46228,-30.0588 2.75552,-5.83764 4.5706,-13.55636 6.29275,-26.76028 1.68528,-12.92108 2.88943,-17.98052 5.73408,-24.09254 2.55846,-5.49715 5.33855,-9.58128 9.97602,-14.65541 1.96538,-2.15044 3.38465,-4.09868 3.15391,-4.32941 -0.81926,-0.81925 8.88784,-6.39952 27.582,-15.85594 10.42126,-5.27157 20.87632,-10.75822 23.23346,-12.19255 l 4.28571,-2.60786 8.21429,0.39645 c 55.31041,2.66949 108.22723,34.06633 137.81241,81.76746 28.42297,45.82727 34.0123,102.6599 15.05023,153.0316 -8.46873,22.49672 -21.68491,43.21595 -38.42357,60.23733 -27.41984,27.88295 -60.6467,44.86071 -99.43907,50.80987 -7.1975,1.10381 -32.75244,1.98095 -38.92857,1.33618 z m -12.5,-22.04182 c 14.37986,-3.17656 30.72202,-10.06174 42.85714,-18.05632 8.24997,-5.43506 19.14482,-16.38562 21.84958,-21.96132 1.85371,-3.82129 2.07036,-4.98234 1.99931,-10.71429 -0.22957,-18.52192 -9.56082,-32.25483 -25.71972,-37.85202 -11.00471,-3.81186 -23.74652,-4.01269 -40.27203,-0.63476 -14.29764,2.92253 -19.59153,1.73049 -29.5678,-6.65788 -11.95308,-10.05052 -15.37604,-12.58099 -20.07505,-14.84074 -6.67903,-3.21194 -12.15243,-4.17365 -21.5469,-3.78595 -10.72004,0.44242 -14.80966,2.06442 -20.98115,8.32144 -7.96204,8.07238 -9.55165,13.20288 -8.87128,28.63217 0.53963,12.23731 2.05226,19.52438 5.91047,28.47357 11.1622,25.89097 31.96829,44.09802 56.56028,49.49494 5.05403,1.10915 8.28578,1.28485 19.28572,1.0485 8.68688,-0.18665 15.04972,-0.68938 18.57143,-1.46734 z m 143.25473,-30.84303 c 13.54279,-9.59346 16.15975,-13.4628 14.61485,-21.60898 -1.68806,-8.90115 -6.02742,-12.41327 -18.32158,-14.82887 l -5.92622,-1.1644 -3.30956,2.78525 c -5.28102,4.44437 -5.77035,4.7114 -16.28148,8.8849 -11.74852,4.6648 -13.49851,6.16654 -11.55824,9.9186 3.43173,6.63625 16.78472,17.27368 25.53021,20.33823 5.61852,1.96881 6.86762,1.61462 15.25202,-4.32473 z m 29.4818,-60.54081 c 2.61188,-1.35066 7.99745,-7.18441 10.28807,-11.14425 1.72075,-2.97468 4.11825,-9.85333 4.11825,-11.81562 0,-0.46888 -0.89251,-1.031 -1.98336,-1.24917 -1.36396,-0.2728 -2.48985,-1.29785 -3.60515,-3.28227 -1.99428,-3.54833 -2.71963,-4.03281 -4.20882,-2.81113 -3.30207,2.70887 -14.00077,21.88579 -14.92006,26.74347 -0.3867,2.04339 -0.20376,2.30718 2.32743,3.35606 3.45471,1.43157 5.5068,1.48373 7.98364,0.20291 z m -67.99035,-37.6281 c 11.60942,-3.5428 23.32552,-11.03014 34.54605,-22.07713 10.45817,-10.29643 15.6764,-18.7371 15.6764,-25.35714 0,-21.97044 -48.4974,-39.46168 -99.96863,-36.05505 -18.11007,1.19862 -32.41461,3.99455 -44.14134,8.62777 -19.4855,7.6987 -29.20155,19.54143 -21.74263,26.50171 2.82875,2.63964 5.3529,3.22085 21.06205,4.84974 16.22756,1.68263 23.44467,2.93986 31.55483,5.49685 14.53793,4.58355 24.69637,12.52087 30.40393,23.75618 4.189,8.24605 8.40636,12.44274 14.79364,14.72114 4.12996,1.47319 12.15227,1.26422 17.8157,-0.46407 z M 323.74105,535.97871 c 1.10595,-1.38607 3.71267,-3.48059 5.79271,-4.6545 2.08003,-1.1739 4.33246,-2.74274 5.00539,-3.48632 1.11792,-1.23529 1.12863,-1.53544 0.1241,-3.47798 -2.21176,-4.27708 -11.17677,-10.86102 -14.78888,-10.86102 -2.11863,0 -9.7193,8.18427 -10.61363,11.42857 -1.13607,4.12127 0.72553,9.92182 3.69415,11.51058 5.15247,2.75752 8.32731,2.62232 10.78616,-0.45933 z m 205.61159,-61.33483 c 5.24807,-1.85244 8.761,-4.05861 9.92459,-6.23281 0.57854,-1.081 0.38574,-2.55134 -0.81301,-6.20032 -2.31838,-7.05715 -3.25412,-8.54733 -6.36311,-10.13343 -5.33449,-2.72145 -10.11954,-1.63763 -13.58709,3.07749 -1.97628,2.68734 -2.02479,2.92533 -1.00018,4.9067 0.59226,1.14531 1.26442,4.87833 1.49369,8.29559 0.22926,3.41727 0.73395,6.615 1.12152,7.10607 1.04185,1.32009 3.87574,1.06837 9.22359,-0.81929 z M 393.08982,444.86814 c 0.8439,-0.76952 -1.00438,-5.63235 -2.49911,-6.57521 -2.43876,-1.53832 -7.07477,1.05054 -7.07477,3.95074 0,2.83686 1.96311,4.10656 5.6232,3.63697 1.81796,-0.23324 3.59576,-0.68887 3.95068,-1.0125 z m -18.237,-0.18733 c 0.43862,-0.52851 1.00205,-1.98366 1.25205,-3.23367 0.5674,-2.83704 -1.23213,-5.09111 -4.06448,-5.09111 -1.6138,0 -2.23729,0.55538 -3.46072,3.08266 -0.82077,1.69546 -1.4923,3.31813 -1.4923,3.60591 0,0.65464 4.24116,2.53157 5.8054,2.56919 0.6394,0.0154 1.52142,-0.40447 1.96005,-0.93298 z m -11.07606,-7.66234 c 2.17836,-1.7135 2.44117,-4.22073 0.6156,-5.87285 -0.99649,-0.90182 -2.02421,-1.0339 -4.82143,-0.61966 -3.34636,0.49557 -3.54651,0.64447 -3.41046,2.5374 0.35591,4.95209 3.96572,6.82666 7.61629,3.95511 z m 20.74236,0.87658 c 0.20525,-0.33212 0.5779,-1.88405 0.82811,-3.44874 0.58048,-3.6301 -0.84454,-5.23314 -4.65199,-5.23314 -3.19123,0 -4.51461,1.28032 -4.1952,4.05869 0.1803,1.56822 0.92691,2.34259 3.44448,3.57246 3.67077,1.79325 4.06038,1.88274 4.5746,1.05073 z m 76.7286,-3.47706 c 2.65749,-1.97911 5.01317,-7.72325 3.83563,-9.35284 -2.70108,-3.73797 -3.88733,-5.91175 -5.25931,-9.63761 -0.83902,-2.27853 -2.1758,-4.59827 -2.97062,-5.15498 -1.28808,-0.90221 -1.82047,-0.80792 -4.89903,0.86765 -4.09032,2.22623 -10.32287,8.58032 -10.97852,11.19261 -0.3589,1.42999 0.10422,2.61599 2.05254,5.25636 2.76661,3.74933 6.67537,7.63902 8.34468,8.30399 2.08303,0.82976 7.95815,-0.0479 9.87463,-1.47518 z m -86.89516,-3.52981 c 2.04532,-1.85099 1.52539,-5.96072 -0.7541,-5.96072 -0.65627,0 -1.92251,-0.51081 -2.81385,-1.13514 -0.89135,-0.62432 -2.07014,-0.96264 -2.61953,-0.75182 -1.18947,0.45644 -2.11718,4.73713 -1.46913,6.77895 0.74148,2.33619 5.51918,3.00308 7.65661,1.06873 z m -11.57603,-12.34233 c 2.19178,-4.09538 -0.74299,-9.54884 -3.9594,-7.35745 -0.94491,0.64379 -3.15833,5.05142 -3.15833,6.28928 0,0.92176 2.95032,2.29196 5.15344,2.39339 0.67368,0.031 1.55761,-0.56534 1.96429,-1.32522 z m 10.08487,-2.27372 c 1.25878,-1.7678 1.45013,-2.61432 0.92835,-4.10714 -0.93988,-2.68901 -3.59403,-2.74582 -6.70238,-0.14347 l -2.5,2.09304 2.09792,2.19216 c 2.65676,2.77611 4.1808,2.76757 6.17611,-0.0346 z m 8.47073,-5.56494 c 2.42579,-2.01141 2.44257,-2.06414 1.24096,-3.89802 -1.61609,-2.46648 -4.40692,-3.14728 -6.21055,-1.51502 -2.02993,1.83706 -2.39994,3.76133 -1.10365,5.73971 1.48724,2.26982 3.04275,2.18615 6.07324,-0.32667 z m -9.62572,-5.28598 c 0.98142,-1.49784 0.95095,-1.9033 -0.33218,-4.42008 -2.02343,-3.96884 -2.26672,-4.07289 -4.831,-2.06604 -2.70016,2.1132 -2.85373,3.22674 -0.83579,6.06068 1.82334,2.56064 4.47663,2.74881 5.99897,0.42544 z m 9.3841,-5.31518 c 0.21278,-0.6875 0.83711,-2.28785 1.3874,-3.55633 0.92492,-2.13206 0.8915,-2.36469 -0.44229,-3.07851 -0.79355,-0.4247 -2.46248,-0.67256 -3.70872,-0.55081 -1.87037,0.18273 -2.38214,0.62925 -2.93184,2.55805 -0.97797,3.43149 0.32382,5.8776 3.12799,5.8776 1.45318,0 2.30964,-0.41698 2.56746,-1.25 z"
       id="path4984"
       inkscape:connector-curvature="0" />
  </g>
</svg>
