<?xml version="1.0" encoding="UTF-8" standalone="no"?>
<!-- Created with Inkscape (http://www.inkscape.org/) -->

<svg
   xmlns:dc="http://purl.org/dc/elements/1.1/"
   xmlns:cc="http://creativecommons.org/ns#"
   xmlns:rdf="http://www.w3.org/1999/02/22-rdf-syntax-ns#"
   xmlns:svg="http://www.w3.org/2000/svg"
   xmlns="http://www.w3.org/2000/svg"
   xmlns:sodipodi="http://sodipodi.sourceforge.net/DTD/sodipodi-0.dtd"
   xmlns:inkscape="http://www.inkscape.org/namespaces/inkscape"
   width="210mm"
   height="297mm"
   viewBox="0 0 744.09448819 1052.3622047"
   id="svg2"
   version="1.1"
   inkscape:version="0.91 r13725"
   sodipodi:docname="goal_2.svg">
  <defs
     id="defs4" />
  <sodipodi:namedview
     id="base"
     pagecolor="#ffffff"
     bordercolor="#666666"
     borderopacity="1.0"
     inkscape:pageopacity="0.0"
     inkscape:pageshadow="2"
     inkscape:zoom="1.4"
     inkscape:cx="67.902221"
     inkscape:cy="509.78631"
     inkscape:document-units="px"
     inkscape:current-layer="layer1"
     showgrid="false"
     inkscape:window-width="1280"
     inkscape:window-height="1002"
     inkscape:window-x="1592"
     inkscape:window-y="-8"
     inkscape:window-maximized="1" />
  <metadata
     id="metadata7">
    <rdf:RDF>
      <cc:Work
         rdf:about="">
        <dc:format>image/svg+xml</dc:format>
        <dc:type
           rdf:resource="http://purl.org/dc/dcmitype/StillImage" />
        <dc:title />
      </cc:Work>
    </rdf:RDF>
  </metadata>
  <g
     inkscape:label="Ebene 1"
     inkscape:groupmode="layer"
     id="layer1">
    <path
       style="opacity:1;fill:#0066ff;fill-opacity:1;stroke:#000000;stroke-opacity:0"
       id="path4303"
       sodipodi:type="arc"
       sodipodi:cx="427.5"
       sodipodi:cy="416.29077"
       sodipodi:rx="33.92857"
       sodipodi:ry="31.785715"
       sodipodi:start="0"
       sodipodi:end="6.2794154"
       sodipodi:open="true"
       d="m 461.42857,416.29077 a 33.92857,31.785715 0 0 1 -33.89659,31.7857 33.92857,31.785715 0 0 1 -33.96049,-31.72578 33.92857,31.785715 0 0 1 33.83258,-31.84551 33.92857,31.785715 0 0 1 34.02426,31.66576"
       inkscape:export-xdpi="185.37"
       inkscape:export-ydpi="185.37" />
    <path
       style="opacity:1;fill:#5599ff;fill-opacity:1;stroke:#000000;stroke-opacity:0"
       id="path4136"
       sodipodi:type="arc"
       sodipodi:cx="397.85715"
       sodipodi:cy="538.07648"
       sodipodi:rx="174.28572"
       sodipodi:ry="174.28572"
       sodipodi:start="0"
       sodipodi:end="6.2794154"
       sodipodi:open="true"
       d="M 572.14287,538.07648 A 174.28572,174.28572 0 0 1 398.02141,712.36212 174.28572,174.28572 0 0 1 223.57174,538.405 174.28572,174.28572 0 0 1 397.36437,363.79145 174.28572,174.28572 0 0 1 572.14163,537.41944"
       inkscape:export-xdpi="185.37"
       inkscape:export-ydpi="185.37" />
    <path
       style="opacity:1;fill:#c87137;fill-opacity:1;stroke:#000000;stroke-opacity:0"
       d="m 526.42857,513.43365 c 10e-6,18.72575 -62.9242,75.0256 -82.06545,33.92856 -16.97514,-36.44631 -72.55202,-27.45945 -82.22013,-33.8646 -15.61083,-10.34222 14.58051,-38.63297 83.69617,-36.49239 45.31415,1.40342 80.41791,17.57492 80.58882,36.30053"
       id="path4138"
       inkscape:connector-curvature="0"
       sodipodi:nodetypes="csssc"
       inkscape:export-xdpi="185.37"
       inkscape:export-ydpi="185.37" />
    <path
       sodipodi:nodetypes="csssc"
       inkscape:connector-curvature="0"
       id="path4141"
       d="m 523.05677,512.70638 c 10e-6,17.84748 -59.97294,71.50676 -78.21643,32.33725 -16.17897,-34.73691 -69.14919,-26.17155 -78.36385,-32.27629 -14.87865,-9.85715 13.89666,-36.82101 79.77066,-34.78083 43.18884,1.3376 76.64617,16.75063 76.80906,34.59797"
       style="opacity:1;fill:#8a916f;fill-opacity:1;stroke:#000000;stroke-width:0.95309818;stroke-opacity:0"
       inkscape:export-xdpi="185.37"
       inkscape:export-ydpi="185.37" />
    <g
       id="g4149"
       transform="translate(-31.314729,15.657364)"
       inkscape:export-xdpi="185.37"
       inkscape:export-ydpi="185.37">
      <path
         style="opacity:1;fill:#c87137;fill-opacity:1;stroke:#000000;stroke-opacity:0"
         d="m 314.90442,564.00434 c 52.01198,-19.13749 53.18628,29.61321 83.95463,21.89345 45.68164,-11.4615 72.11883,6.80274 70.40199,41.53587 -0.92448,18.70307 -53.21892,56.38427 -103.86133,46.84154 -44.55182,-8.39506 -66.74007,-60.17359 -62.144,-78.3272"
         id="path4143"
         inkscape:connector-curvature="0"
         sodipodi:nodetypes="csssc" />
      <path
         d="m 359.53838,589.20728 a 28.713432,29.723585 0 0 1 -28.68637,29.72357 28.713432,29.723585 0 0 1 -28.74044,-29.66755 28.713432,29.723585 0 0 1 28.6322,-29.77949 28.713432,29.723585 0 0 1 28.79441,29.61141"
         sodipodi:open="true"
         sodipodi:end="6.2794154"
         sodipodi:start="0"
         sodipodi:ry="29.723585"
         sodipodi:rx="28.713432"
         sodipodi:cy="589.20728"
         sodipodi:cx="330.82495"
         sodipodi:type="arc"
         id="path4145"
         style="opacity:1;fill:#c87137;fill-opacity:1;stroke:#000000;stroke-width:1.15183008;stroke-opacity:0" />
    </g>
    <g
       id="g4153"
       style="fill:#8a916f"
       transform="matrix(0.96558006,0,0,0.96558006,-17.905433,36.915243)"
       inkscape:export-xdpi="185.37"
       inkscape:export-ydpi="185.37">
      <path
         sodipodi:nodetypes="csssc"
         inkscape:connector-curvature="0"
         id="path4155"
         d="m 314.90442,564.00434 c 52.01198,-19.13749 53.18628,29.61321 83.95463,21.89345 45.68164,-11.4615 72.11883,6.80274 70.40199,41.53587 -0.92448,18.70307 -53.21892,56.38427 -103.86133,46.84154 -44.55182,-8.39506 -66.74007,-60.17359 -62.144,-78.3272"
         style="opacity:1;fill:#8a916f;fill-opacity:1;stroke:#000000;stroke-opacity:0" />
      <path
         style="opacity:1;fill:#8a916f;fill-opacity:1;stroke:#000000;stroke-width:1.15183008;stroke-opacity:0"
         id="path4157"
         sodipodi:type="arc"
         sodipodi:cx="330.82495"
         sodipodi:cy="589.20728"
         sodipodi:rx="28.713432"
         sodipodi:ry="29.723585"
         sodipodi:start="0"
         sodipodi:end="6.2794154"
         sodipodi:open="true"
         d="m 359.53838,589.20728 a 28.713432,29.723585 0 0 1 -28.68637,29.72357 28.713432,29.723585 0 0 1 -28.74044,-29.66755 28.713432,29.723585 0 0 1 28.6322,-29.77949 28.713432,29.723585 0 0 1 28.79441,29.61141" />
    </g>
    <path
       id="path4170"
       d="m 397.36523,363.79102 c -96.19085,0.27179 -173.97413,78.42222 -173.79296,174.61328 0.10797,19.08216 3.34902,38.01707 9.59375,56.04882 18.61499,-32.109 44.2473,-59.81797 47.54799,-96.7991 69.11633,-33.4402 25.4773,-68.05679 64.13755,-102.26089 -9.08652,-1.49709 61.72259,-31.55736 52.51367,-31.60211 z"
       style="opacity:1;fill:#c87137;fill-opacity:1;stroke:#000000;stroke-opacity:0"
       inkscape:connector-curvature="0"
       sodipodi:nodetypes="cccccc"
       inkscape:export-xdpi="185.37"
       inkscape:export-ydpi="185.37" />
    <path
       sodipodi:nodetypes="cccccc"
       inkscape:connector-curvature="0"
       style="opacity:1;fill:#8a916f;fill-opacity:1;stroke:#000000;stroke-width:0.97856891;stroke-opacity:0"
       d="m 393.11001,363.77985 c -93.84136,0.26678 -169.72476,76.97708 -169.54801,171.39557 0.10533,18.73052 3.26722,37.3165 9.35942,55.01597 18.16031,-31.51731 43.16654,-58.71566 46.38661,-95.01532 67.42814,-32.82398 24.85501,-66.80266 62.57097,-100.37646 -8.86458,-1.4695 60.215,-30.97583 51.23101,-31.01976 z"
       id="path4176"
       inkscape:export-xdpi="185.37"
       inkscape:export-ydpi="185.37" />
    <g
       id="g4209"
       inkscape:export-xdpi="185.37"
       inkscape:export-ydpi="185.37">
      <path
         sodipodi:nodetypes="csssc"
         inkscape:connector-curvature="0"
         id="path4178"
         d="m 465.7143,425.21936 c -1.64018,8.27875 -4.77776,11.06761 -11.41712,10.89285 -5.89404,-0.15515 -7.28229,-3.67687 -12.86857,-10.86458 -3.02749,-3.89538 7.18765,-12.71196 12.1085,-15.02821 5.35672,-2.52142 4.76506,3.99801 8.78424,11.55053"
         style="opacity:1;fill:#c87137;fill-opacity:1;stroke:#000000;stroke-opacity:0" />
      <path
         style="opacity:1;fill:#00aa00;fill-opacity:1;stroke:#000000;stroke-width:0.95158899;stroke-opacity:0"
         d="m 465.20233,424.97819 c -1.56077,7.87797 -4.54646,10.53182 -10.8644,10.36552 -5.60871,-0.14764 -6.92975,-3.49887 -12.24559,-10.33861 -2.88093,-3.70681 6.83969,-12.09657 11.52231,-14.30068 5.0974,-2.39936 4.53438,3.80446 8.35899,10.99135"
         id="path4181"
         inkscape:connector-curvature="0"
         sodipodi:nodetypes="csssc" />
    </g>
    <g
       id="g4213"
       transform="matrix(0.1720766,0.98508357,-0.98508357,0.1720766,660.45223,6.4495149)"
       inkscape:export-xdpi="185.37"
       inkscape:export-ydpi="185.37">
      <path
         style="opacity:1;fill:#c87137;fill-opacity:1;stroke:#000000;stroke-opacity:0"
         d="m 465.7143,425.21936 c -1.64018,8.27875 -4.77776,11.06761 -11.41712,10.89285 -5.89404,-0.15515 -7.28229,-3.67687 -12.86857,-10.86458 -3.02749,-3.89538 7.18765,-12.71196 12.1085,-15.02821 5.35672,-2.52142 4.76506,3.99801 8.78424,11.55053"
         id="path4215"
         inkscape:connector-curvature="0"
         sodipodi:nodetypes="csssc" />
      <path
         sodipodi:nodetypes="csssc"
         inkscape:connector-curvature="0"
         id="path4217"
         d="m 465.20233,424.97819 c -1.56077,7.87797 -4.54646,10.53182 -10.8644,10.36552 -5.60871,-0.14764 -6.92975,-3.49887 -12.24559,-10.33861 -2.88093,-3.70681 6.83969,-12.09657 11.52231,-14.30068 5.0974,-2.39936 4.53438,3.80446 8.35899,10.99135"
         style="opacity:1;fill:#00aa00;fill-opacity:1;stroke:#000000;stroke-width:0.95158899;stroke-opacity:0" />
    </g>
    <g
       id="g4225"
       transform="matrix(-0.17508633,-1.7039654,2.1181201,-0.14085181,-314.71962,1474.9452)"
       inkscape:export-xdpi="185.37"
       inkscape:export-ydpi="185.37">
      <path
         style="opacity:1;fill:#c87137;fill-opacity:1;stroke:#000000;stroke-opacity:0"
         d="m 465.7143,425.21936 c -1.64018,8.27875 -4.77776,11.06761 -11.41712,10.89285 -5.89404,-0.15515 -7.28229,-3.67687 -12.86857,-10.86458 -3.02749,-3.89538 7.18765,-12.71196 12.1085,-15.02821 5.35672,-2.52142 4.76506,3.99801 8.78424,11.55053"
         id="path4227"
         inkscape:connector-curvature="0"
         sodipodi:nodetypes="csssc" />
      <path
         sodipodi:nodetypes="csssc"
         inkscape:connector-curvature="0"
         id="path4229"
         d="m 465.20233,424.97819 c -1.56077,7.87797 -4.54646,10.53182 -10.8644,10.36552 -5.60871,-0.14764 -6.92975,-3.49887 -12.24559,-10.33861 -2.88093,-3.70681 6.83969,-12.09657 11.52231,-14.30068 5.0974,-2.39936 4.53438,3.80446 8.35899,10.99135"
         style="opacity:1;fill:#00aa00;fill-opacity:1;stroke:#000000;stroke-width:0.95158899;stroke-opacity:0" />
    </g>
    <g
       id="g4231"
       transform="matrix(1,-0.94055672,0,1,92.857143,587.06345)"
       inkscape:export-xdpi="185.37"
       inkscape:export-ydpi="185.37">
      <path
         style="opacity:1;fill:#c87137;fill-opacity:1;stroke:#000000;stroke-opacity:0"
         d="m 465.7143,425.21936 c -1.64018,8.27875 -4.77776,11.06761 -11.41712,10.89285 -5.89404,-0.15515 -7.28229,-3.67687 -12.86857,-10.86458 -3.02749,-3.89538 7.18765,-12.71196 12.1085,-15.02821 5.35672,-2.52142 4.76506,3.99801 8.78424,11.55053"
         id="path4233"
         inkscape:connector-curvature="0"
         sodipodi:nodetypes="csssc" />
      <path
         sodipodi:nodetypes="csssc"
         inkscape:connector-curvature="0"
         id="path4235"
         d="m 465.20233,424.97819 c -1.56077,7.87797 -4.54646,10.53182 -10.8644,10.36552 -5.60871,-0.14764 -6.92975,-3.49887 -12.24559,-10.33861 -2.88093,-3.70681 6.83969,-12.09657 11.52231,-14.30068 5.0974,-2.39936 4.53438,3.80446 8.35899,10.99135"
         style="opacity:1;fill:#00aa00;fill-opacity:1;stroke:#000000;stroke-width:0.95158899;stroke-opacity:0" />
    </g>
    <g
       id="g4237"
       transform="matrix(-0.940292,-0.34036884,0.34036884,-0.940292,809.86882,1016.2572)"
       inkscape:export-xdpi="185.37"
       inkscape:export-ydpi="185.37">
      <path
         style="opacity:1;fill:#c87137;fill-opacity:1;stroke:#000000;stroke-opacity:0"
         d="m 465.7143,425.21936 c -1.64018,8.27875 -4.77776,11.06761 -11.41712,10.89285 -5.89404,-0.15515 -7.28229,-3.67687 -12.86857,-10.86458 -3.02749,-3.89538 7.18765,-12.71196 12.1085,-15.02821 5.35672,-2.52142 4.76506,3.99801 8.78424,11.55053"
         id="path4239"
         inkscape:connector-curvature="0"
         sodipodi:nodetypes="csssc" />
      <path
         sodipodi:nodetypes="csssc"
         inkscape:connector-curvature="0"
         id="path4241"
         d="m 465.20233,424.97819 c -1.56077,7.87797 -4.54646,10.53182 -10.8644,10.36552 -5.60871,-0.14764 -6.92975,-3.49887 -12.24559,-10.33861 -2.88093,-3.70681 6.83969,-12.09657 11.52231,-14.30068 5.0974,-2.39936 4.53438,3.80446 8.35899,10.99135"
         style="opacity:1;fill:#00aa00;fill-opacity:1;stroke:#000000;stroke-width:0.95158899;stroke-opacity:0" />
    </g>
    <g
       id="g4243"
       transform="matrix(0.3368134,0,0,0.35862744,215.69785,250.53104)"
       inkscape:export-xdpi="185.37"
       inkscape:export-ydpi="185.37">
      <path
         style="opacity:1;fill:#c87137;fill-opacity:1;stroke:#000000;stroke-opacity:0"
         d="m 465.7143,425.21936 c -1.64018,8.27875 -4.77776,11.06761 -11.41712,10.89285 -5.89404,-0.15515 -7.28229,-3.67687 -12.86857,-10.86458 -3.02749,-3.89538 7.18765,-12.71196 12.1085,-15.02821 5.35672,-2.52142 4.76506,3.99801 8.78424,11.55053"
         id="path4245"
         inkscape:connector-curvature="0"
         sodipodi:nodetypes="csssc" />
      <path
         sodipodi:nodetypes="csssc"
         inkscape:connector-curvature="0"
         id="path4247"
         d="m 465.20233,424.97819 c -1.56077,7.87797 -4.54646,10.53182 -10.8644,10.36552 -5.60871,-0.14764 -6.92975,-3.49887 -12.24559,-10.33861 -2.88093,-3.70681 6.83969,-12.09657 11.52231,-14.30068 5.0974,-2.39936 4.53438,3.80446 8.35899,10.99135"
         style="opacity:1;fill:#00aa00;fill-opacity:1;stroke:#000000;stroke-width:0.95158899;stroke-opacity:0" />
    </g>
    <g
       id="g4249"
       transform="matrix(-0.05793572,-0.35328209,0.33179318,-0.06168798,255.5244,600.46112)"
       inkscape:export-xdpi="185.37"
       inkscape:export-ydpi="185.37">
      <path
         style="opacity:1;fill:#c87137;fill-opacity:1;stroke:#000000;stroke-opacity:0"
         d="m 465.7143,425.21936 c -1.64018,8.27875 -4.77776,11.06761 -11.41712,10.89285 -5.89404,-0.15515 -7.28229,-3.67687 -12.86857,-10.86458 -3.02749,-3.89538 7.18765,-12.71196 12.1085,-15.02821 5.35672,-2.52142 4.76506,3.99801 8.78424,11.55053"
         id="path4251"
         inkscape:connector-curvature="0"
         sodipodi:nodetypes="csssc" />
      <path
         sodipodi:nodetypes="csssc"
         inkscape:connector-curvature="0"
         id="path4253"
         d="m 465.20233,424.97819 c -1.56077,7.87797 -4.54646,10.53182 -10.8644,10.36552 -5.60871,-0.14764 -6.92975,-3.49887 -12.24559,-10.33861 -2.88093,-3.70681 6.83969,-12.09657 11.52231,-14.30068 5.0974,-2.39936 4.53438,3.80446 8.35899,10.99135"
         style="opacity:1;fill:#00aa00;fill-opacity:1;stroke:#000000;stroke-width:0.95158899;stroke-opacity:0" />
    </g>
    <g
       id="g4255"
       transform="matrix(0.21529961,0.27579153,-0.2590161,0.2292437,390.90176,174.59653)"
       inkscape:export-xdpi="185.37"
       inkscape:export-ydpi="185.37">
      <path
         style="opacity:1;fill:#c87137;fill-opacity:1;stroke:#000000;stroke-opacity:0"
         d="m 465.7143,425.21936 c -1.64018,8.27875 -4.77776,11.06761 -11.41712,10.89285 -5.89404,-0.15515 -7.28229,-3.67687 -12.86857,-10.86458 -3.02749,-3.89538 7.18765,-12.71196 12.1085,-15.02821 5.35672,-2.52142 4.76506,3.99801 8.78424,11.55053"
         id="path4257"
         inkscape:connector-curvature="0"
         sodipodi:nodetypes="csssc" />
      <path
         sodipodi:nodetypes="csssc"
         inkscape:connector-curvature="0"
         id="path4259"
         d="m 465.20233,424.97819 c -1.56077,7.87797 -4.54646,10.53182 -10.8644,10.36552 -5.60871,-0.14764 -6.92975,-3.49887 -12.24559,-10.33861 -2.88093,-3.70681 6.83969,-12.09657 11.52231,-14.30068 5.0974,-2.39936 4.53438,3.80446 8.35899,10.99135"
         style="opacity:1;fill:#00aa00;fill-opacity:1;stroke:#000000;stroke-width:0.95158899;stroke-opacity:0" />
    </g>
    <g
       id="g4261"
       transform="matrix(-0.20071887,-0.28798956,0.27047217,-0.21371863,336.3158,636.69449)"
       inkscape:export-xdpi="185.37"
       inkscape:export-ydpi="185.37">
      <path
         style="opacity:1;fill:#c87137;fill-opacity:1;stroke:#000000;stroke-opacity:0"
         d="m 465.7143,425.21936 c -1.64018,8.27875 -4.77776,11.06761 -11.41712,10.89285 -5.89404,-0.15515 -7.28229,-3.67687 -12.86857,-10.86458 -3.02749,-3.89538 7.18765,-12.71196 12.1085,-15.02821 5.35672,-2.52142 4.76506,3.99801 8.78424,11.55053"
         id="path4263"
         inkscape:connector-curvature="0"
         sodipodi:nodetypes="csssc" />
      <path
         sodipodi:nodetypes="csssc"
         inkscape:connector-curvature="0"
         id="path4265"
         d="m 465.20233,424.97819 c -1.56077,7.87797 -4.54646,10.53182 -10.8644,10.36552 -5.60871,-0.14764 -6.92975,-3.49887 -12.24559,-10.33861 -2.88093,-3.70681 6.83969,-12.09657 11.52231,-14.30068 5.0974,-2.39936 4.53438,3.80446 8.35899,10.99135"
         style="opacity:1;fill:#00aa00;fill-opacity:1;stroke:#000000;stroke-width:0.95158899;stroke-opacity:0" />
    </g>
    <g
       id="g4267"
       transform="matrix(0.04501062,0.35541069,-0.33379231,0.04792577,499.71536,226.96766)"
       inkscape:export-xdpi="185.37"
       inkscape:export-ydpi="185.37">
      <path
         style="opacity:1;fill:#c87137;fill-opacity:1;stroke:#000000;stroke-opacity:0"
         d="m 465.7143,425.21936 c -1.64018,8.27875 -4.77776,11.06761 -11.41712,10.89285 -5.89404,-0.15515 -7.28229,-3.67687 -12.86857,-10.86458 -3.02749,-3.89538 7.18765,-12.71196 12.1085,-15.02821 5.35672,-2.52142 4.76506,3.99801 8.78424,11.55053"
         id="path4269"
         inkscape:connector-curvature="0"
         sodipodi:nodetypes="csssc" />
      <path
         sodipodi:nodetypes="csssc"
         inkscape:connector-curvature="0"
         id="path4271"
         d="m 465.20233,424.97819 c -1.56077,7.87797 -4.54646,10.53182 -10.8644,10.36552 -5.60871,-0.14764 -6.92975,-3.49887 -12.24559,-10.33861 -2.88093,-3.70681 6.83969,-12.09657 11.52231,-14.30068 5.0974,-2.39936 4.53438,3.80446 8.35899,10.99135"
         style="opacity:1;fill:#00aa00;fill-opacity:1;stroke:#000000;stroke-width:0.95158899;stroke-opacity:0" />
    </g>
    <g
       transform="matrix(-0.20760107,-0.32789312,0.31073441,-0.19673726,334.4274,673.10385)"
       id="g4273"
       inkscape:transform-center-x="5.0656353"
       inkscape:transform-center-y="-3.04326"
       inkscape:export-xdpi="185.37"
       inkscape:export-ydpi="185.37">
      <path
         sodipodi:nodetypes="csssc"
         inkscape:connector-curvature="0"
         id="path4275"
         d="m 465.7143,425.21936 c -1.64018,8.27875 -4.77776,11.06761 -11.41712,10.89285 -5.89404,-0.15515 -7.28229,-3.67687 -12.86857,-10.86458 -3.02749,-3.89538 7.18765,-12.71196 12.1085,-15.02821 5.35672,-2.52142 4.76506,3.99801 8.78424,11.55053"
         style="opacity:1;fill:#c87137;fill-opacity:1;stroke:#000000;stroke-opacity:0" />
      <path
         style="opacity:1;fill:#00aa00;fill-opacity:1;stroke:#000000;stroke-width:0.95158899;stroke-opacity:0"
         d="m 465.20233,424.97819 c -1.56077,7.87797 -4.54646,10.53182 -10.8644,10.36552 -5.60871,-0.14764 -6.92975,-3.49887 -12.24559,-10.33861 -2.88093,-3.70681 6.83969,-12.09657 11.52231,-14.30068 5.0974,-2.39936 4.53438,3.80446 8.35899,10.99135"
         id="path4277"
         inkscape:connector-curvature="0"
         sodipodi:nodetypes="csssc" />
    </g>
    <g
       transform="matrix(-0.27039316,0.25020622,-0.25795661,-0.28916482,613.07811,442.36606)"
       id="g4279"
       inkscape:transform-center-x="-4.1093857"
       inkscape:transform-center-y="-10.27669"
       inkscape:export-xdpi="185.37"
       inkscape:export-ydpi="185.37">
      <path
         sodipodi:nodetypes="csssc"
         inkscape:connector-curvature="0"
         id="path4281"
         d="m 465.7143,425.21936 c -1.64018,8.27875 -4.77776,11.06761 -11.41712,10.89285 -5.89404,-0.15515 -7.28229,-3.67687 -12.86857,-10.86458 -3.02749,-3.89538 7.18765,-12.71196 12.1085,-15.02821 5.35672,-2.52142 4.76506,3.99801 8.78424,11.55053"
         style="opacity:1;fill:#c87137;fill-opacity:1;stroke:#000000;stroke-opacity:0" />
      <path
         style="opacity:1;fill:#00aa00;fill-opacity:1;stroke:#000000;stroke-width:0.95158899;stroke-opacity:0"
         d="m 465.20233,424.97819 c -1.56077,7.87797 -4.54646,10.53182 -10.8644,10.36552 -5.60871,-0.14764 -6.92975,-3.49887 -12.24559,-10.33861 -2.88093,-3.70681 6.83969,-12.09657 11.52231,-14.30068 5.0974,-2.39936 4.53438,3.80446 8.35899,10.99135"
         id="path4283"
         inkscape:connector-curvature="0"
         sodipodi:nodetypes="csssc" />
    </g>
    <g
       transform="matrix(0.10625701,-0.36089236,0.35827855,0.12639681,160.64347,544.19656)"
       id="g4285"
       inkscape:transform-center-x="16.050849"
       inkscape:transform-center-y="-9.5929466"
       inkscape:export-xdpi="185.37"
       inkscape:export-ydpi="185.37">
      <path
         sodipodi:nodetypes="csssc"
         inkscape:connector-curvature="0"
         id="path4287"
         d="m 465.7143,425.21936 c -1.64018,8.27875 -4.77776,11.06761 -11.41712,10.89285 -5.89404,-0.15515 -7.28229,-3.67687 -12.86857,-10.86458 -3.02749,-3.89538 7.18765,-12.71196 12.1085,-15.02821 5.35672,-2.52142 4.76506,3.99801 8.78424,11.55053"
         style="opacity:1;fill:#c87137;fill-opacity:1;stroke:#000000;stroke-opacity:0" />
      <path
         style="opacity:1;fill:#00aa00;fill-opacity:1;stroke:#000000;stroke-width:0.95158899;stroke-opacity:0"
         d="m 465.20233,424.97819 c -1.56077,7.87797 -4.54646,10.53182 -10.8644,10.36552 -5.60871,-0.14764 -6.92975,-3.49887 -12.24559,-10.33861 -2.88093,-3.70681 6.83969,-12.09657 11.52231,-14.30068 5.0974,-2.39936 4.53438,3.80446 8.35899,10.99135"
         id="path4289"
         inkscape:connector-curvature="0"
         sodipodi:nodetypes="csssc" />
    </g>
    <g
       transform="matrix(-0.12581315,0.35338942,-0.35188794,-0.14606628,594.67543,343.83731)"
       id="g4291"
       inkscape:transform-center-x="-11.802189"
       inkscape:transform-center-y="-1.8784237"
       inkscape:export-xdpi="185.37"
       inkscape:export-ydpi="185.37">
      <path
         sodipodi:nodetypes="csssc"
         inkscape:connector-curvature="0"
         id="path4293"
         d="m 465.7143,425.21936 c -1.64018,8.27875 -4.77776,11.06761 -11.41712,10.89285 -5.89404,-0.15515 -7.28229,-3.67687 -12.86857,-10.86458 -3.02749,-3.89538 7.18765,-12.71196 12.1085,-15.02821 5.35672,-2.52142 4.76506,3.99801 8.78424,11.55053"
         style="opacity:1;fill:#c87137;fill-opacity:1;stroke:#000000;stroke-opacity:0" />
      <path
         style="opacity:1;fill:#00aa00;fill-opacity:1;stroke:#000000;stroke-width:0.95158899;stroke-opacity:0"
         d="m 465.20233,424.97819 c -1.56077,7.87797 -4.54646,10.53182 -10.8644,10.36552 -5.60871,-0.14764 -6.92975,-3.49887 -12.24559,-10.33861 -2.88093,-3.70681 6.83969,-12.09657 11.52231,-14.30068 5.0974,-2.39936 4.53438,3.80446 8.35899,10.99135"
         id="path4295"
         inkscape:connector-curvature="0"
         sodipodi:nodetypes="csssc" />
    </g>
    <g
       transform="matrix(0.28020412,-0.23879115,0.24726447,0.29866073,138.95143,409.53485)"
       id="g4297"
       inkscape:transform-center-x="5.519401"
       inkscape:transform-center-y="-16.390187"
       inkscape:export-xdpi="185.37"
       inkscape:export-ydpi="185.37">
      <path
         sodipodi:nodetypes="csssc"
         inkscape:connector-curvature="0"
         id="path4299"
         d="m 465.7143,425.21936 c -1.64018,8.27875 -4.77776,11.06761 -11.41712,10.89285 -5.89404,-0.15515 -7.28229,-3.67687 -12.86857,-10.86458 -3.02749,-3.89538 7.18765,-12.71196 12.1085,-15.02821 5.35672,-2.52142 4.76506,3.99801 8.78424,11.55053"
         style="opacity:1;fill:#c87137;fill-opacity:1;stroke:#000000;stroke-opacity:0" />
      <path
         style="opacity:1;fill:#00aa00;fill-opacity:1;stroke:#000000;stroke-width:0.95158899;stroke-opacity:0"
         d="m 465.20233,424.97819 c -1.56077,7.87797 -4.54646,10.53182 -10.8644,10.36552 -5.60871,-0.14764 -6.92975,-3.49887 -12.24559,-10.33861 -2.88093,-3.70681 6.83969,-12.09657 11.52231,-14.30068 5.0974,-2.39936 4.53438,3.80446 8.35899,10.99135"
         id="path4301"
         inkscape:connector-curvature="0"
         sodipodi:nodetypes="csssc" />
    </g>
  </g>
</svg>
