<?xml version="1.0" encoding="UTF-8" standalone="no"?>
<!-- Created with Inkscape (http://www.inkscape.org/) -->

<svg
   xmlns:dc="http://purl.org/dc/elements/1.1/"
   xmlns:cc="http://creativecommons.org/ns#"
   xmlns:rdf="http://www.w3.org/1999/02/22-rdf-syntax-ns#"
   xmlns:svg="http://www.w3.org/2000/svg"
   xmlns="http://www.w3.org/2000/svg"
   xmlns:sodipodi="http://sodipodi.sourceforge.net/DTD/sodipodi-0.dtd"
   xmlns:inkscape="http://www.inkscape.org/namespaces/inkscape"
   width="210mm"
   height="297mm"
   viewBox="0 0 744.09448819 1052.3622047"
   id="svg2"
   version="1.1"
   inkscape:version="0.91 r13725"
   sodipodi:docname="mars_face.svg">
  <defs
     id="defs4" />
  <sodipodi:namedview
     id="base"
     pagecolor="#ffffff"
     bordercolor="#666666"
     borderopacity="1.0"
     inkscape:pageopacity="0.0"
     inkscape:pageshadow="2"
     inkscape:zoom="1.4"
     inkscape:cx="378.9336"
     inkscape:cy="589.17877"
     inkscape:document-units="px"
     inkscape:current-layer="layer1"
     showgrid="false"
     inkscape:window-width="1280"
     inkscape:window-height="1002"
     inkscape:window-x="1592"
     inkscape:window-y="-8"
     inkscape:window-maximized="1" />
  <metadata
     id="metadata7">
    <rdf:RDF>
      <cc:Work
         rdf:about="">
        <dc:format>image/svg+xml</dc:format>
        <dc:type
           rdf:resource="http://purl.org/dc/dcmitype/StillImage" />
        <dc:title />
      </cc:Work>
    </rdf:RDF>
  </metadata>
  <g
     inkscape:label="Ebene 1"
     inkscape:groupmode="layer"
     id="layer1">
    <path
       style="opacity:1;fill:#ff2a2a;fill-opacity:1;stroke:#000000;stroke-opacity:0"
       id="path4283"
       sodipodi:type="arc"
       sodipodi:cx="375.27167"
       sodipodi:cy="439.70468"
       sodipodi:rx="204.55589"
       sodipodi:ry="204.55589"
       sodipodi:start="0"
       sodipodi:end="6.2794154"
       sodipodi:open="true"
       d="M 579.82756,439.70468 A 204.55589,204.55589 0 0 1 375.46446,644.26048 204.55589,204.55589 0 0 1 170.71614,440.09026 204.55589,204.55589 0 0 1 374.6933,235.14961 204.55589,204.55589 0 0 1 579.82611,438.93353" />
    <path
       style="opacity:1;fill:#ff0000;fill-opacity:1;stroke:#000000;stroke-opacity:0"
       d="m 579.82756,439.70468 c 0,56.44891 -56.20137,-57.0936 -93.17992,-20.08018 -36.97855,37.01342 -250.71105,-7.56261 -201.08675,-34.46815 72.46522,-39.28955 71.55128,0.50006 95.26698,-21.83768 52.95936,-49.88225 29.91948,3.74306 63.56596,-45.33656 15.95911,-23.27931 29.62435,-9.8441 38.70954,-12.95892 9.08518,-3.11482 17.77432,-28.87459 36.33324,-10.43771 37.11783,36.87375 60.17669,87.89954 60.3895,144.34805"
       id="path4285"
       inkscape:connector-curvature="0"
       sodipodi:nodetypes="cssssssc" />
    <path
       sodipodi:nodetypes="cssssssc"
       inkscape:connector-curvature="0"
       id="path4288"
       d="m 579.84314,436.80982 c 0,54.25002 -57.9204,-56.38482 -94.03607,-20.81321 -36.11567,35.57162 -244.86081,-9.79341 -193.36402,-31.61025 73.8618,-31.29187 62.30553,2.50088 87.99321,-16.44135 56.75967,-41.85488 30.73655,-2.46366 67.13344,-48.11622 16.99772,-21.32022 28.93307,-9.46065 37.80627,-12.45413 8.87318,-2.99348 17.35956,-27.74982 35.48542,-10.03112 36.25171,35.43739 58.77248,84.47554 58.98033,138.72517"
       style="opacity:1;fill:#ff5555;fill-opacity:1;stroke:#000000;stroke-width:0.96882445;stroke-opacity:0" />
    <path
       style="opacity:1;fill:#ff0000;fill-opacity:1;stroke:#000000;stroke-opacity:0"
       d="m 476.97042,495.06182 c 66.6689,-15.74662 -29.42803,43.57985 -112.93453,62.0558 -27.558,6.09725 -31.54871,20.04965 -56.01932,9.73381 -24.47061,-10.31584 -58.659,36.17228 -77.18313,17.70045 -18.52413,-18.47183 -33.52685,-40.47503 -43.91185,-64.91638 158.65463,-67.85575 93.76623,-9.62241 181.34314,-7.34304"
       id="path4290"
       inkscape:connector-curvature="0"
       sodipodi:nodetypes="cssscc" />
    <path
       sodipodi:nodetypes="cssscc"
       inkscape:connector-curvature="0"
       id="path4293"
       d="m 469.70003,498.57938 c 65.0057,-14.3225 -28.69387,39.63849 -110.11711,56.44348 -26.8705,5.54582 -30.76166,18.23636 -54.62178,8.85349 -23.86014,-9.38289 -59.69562,32.90087 -77.75762,16.09963 -18.06201,-16.80125 -30.19045,-36.81448 -40.31637,-59.04536 154.69662,-61.71889 91.42701,-8.75216 176.81911,-6.67894"
       style="opacity:1;fill:#ff5555;fill-opacity:1;stroke:#000000;stroke-width:0.94173723;stroke-opacity:0" />
    <path
       style="opacity:1;fill:#ffffff;fill-opacity:1;stroke:#000000;stroke-opacity:0"
       id="path4309"
       sodipodi:type="arc"
       sodipodi:cx="300.01529"
       sodipodi:cy="359.39755"
       sodipodi:rx="73.741135"
       sodipodi:ry="73.741135"
       sodipodi:start="0"
       sodipodi:end="6.2794154"
       sodipodi:open="true"
       d="m 373.75642,359.39755 a 73.741135,73.741135 0 0 1 -73.67163,73.7411 73.741135,73.741135 0 0 1 -73.8105,-73.6021 73.741135,73.741135 0 0 1 73.5325,-73.87984 73.741135,73.741135 0 0 1 73.94911,73.46285" />
    <path
       style="opacity:1;fill:#000000;fill-opacity:1;stroke:#000000;stroke-opacity:0"
       id="path4311"
       sodipodi:type="arc"
       sodipodi:cx="302.00839"
       sodipodi:cy="357.10498"
       sodipodi:rx="15.657365"
       sodipodi:ry="15.657365"
       sodipodi:start="0"
       sodipodi:end="6.2794154"
       sodipodi:open="true"
       d="m 317.66576,357.10498 a 15.657365,15.657365 0 0 1 -15.64261,15.65736 15.657365,15.657365 0 0 1 -15.67209,-15.62785 15.657365,15.657365 0 0 1 15.61306,-15.68681 15.657365,15.657365 0 0 1 15.70153,15.59827"
       inkscape:export-filename="D:\dev\workspaces\jam prototypes\orbit physics\core\assets\graphics\iris.png"
       inkscape:export-xdpi="90"
       inkscape:export-ydpi="90" />
    <path
       d="m -388.41701,361.54041 a 73.741135,73.741135 0 0 1 -73.67163,73.7411 73.741135,73.741135 0 0 1 -73.81051,-73.60211 73.741135,73.741135 0 0 1 73.53251,-73.87983 73.741135,73.741135 0 0 1 73.94911,73.46284"
       sodipodi:open="true"
       sodipodi:end="6.2794154"
       sodipodi:start="0"
       sodipodi:ry="73.741135"
       sodipodi:rx="73.741135"
       sodipodi:cy="361.54041"
       sodipodi:cx="-462.15814"
       sodipodi:type="arc"
       id="path4315"
       style="opacity:1;fill:#ffffff;fill-opacity:1;stroke:#000000;stroke-opacity:0"
       transform="scale(-1,1)" />
    <path
       d="m -449.50767,359.96213 a 15.657365,15.657365 0 0 1 -15.64261,15.65736 15.657365,15.657365 0 0 1 -15.6721,-15.62785 15.657365,15.657365 0 0 1 15.61307,-15.68681 15.657365,15.657365 0 0 1 15.70152,15.59827"
       sodipodi:open="true"
       sodipodi:end="6.2794154"
       sodipodi:start="0"
       sodipodi:ry="15.657365"
       sodipodi:rx="15.657365"
       sodipodi:cy="359.96213"
       sodipodi:cx="-465.16504"
       sodipodi:type="arc"
       id="path4317"
       style="opacity:1;fill:#000000;fill-opacity:1;stroke:#000000;stroke-opacity:0"
       transform="scale(-1,1)" />
    <path
       style="opacity:1;fill:#000000;fill-opacity:1;stroke:#000000;stroke-opacity:0"
       d="m 482.14288,524.50502 c 1e-5,3.54803 -47.44622,19.28237 -109.53683,19.28571 -62.0906,0.003 -108.91736,-20.72556 -109.0344,-24.27359 -0.11701,-3.54803 46.51993,11.42651 108.61029,11.41648 62.09038,-0.01 110.44034,-9.28656 110.67442,-5.73855"
       id="path4321"
       inkscape:connector-curvature="0"
       sodipodi:nodetypes="cscsc" />
  </g>
</svg>
